<svg width="86" height="79" viewBox="0 0 86 79" fill="none" xmlns="http://www.w3.org/2000/svg">
<g filter="url(#filter0_d_634_1122)">
<path d="M46.5828 24.359C48.287 24.359 49.6685 22.9774 49.6685 21.2732C49.6685 19.569 48.287 18.1875 46.5828 18.1875C44.8786 18.1875 43.4971 19.569 43.4971 21.2732C43.4971 22.9774 44.8786 24.359 46.5828 24.359Z" fill="#E16162"/>
</g>
<g filter="url(#filter1_d_634_1122)">
<path d="M20.0465 18.1867C23.4549 18.1867 26.2179 15.4236 26.2179 12.0152C26.2179 8.60681 23.4549 5.84375 20.0465 5.84375C16.6381 5.84375 13.875 8.60681 13.875 12.0152C13.875 15.4236 16.6381 18.1867 20.0465 18.1867Z" fill="#E16162"/>
</g>
<g filter="url(#filter2_d_634_1122)">
<path d="M39.7946 12.0149C42.5213 12.0149 44.7318 9.52812 44.7318 6.46056C44.7318 3.393 42.5213 0.90625 39.7946 0.90625C37.0679 0.90625 34.8574 3.393 34.8574 6.46056C34.8574 9.52812 37.0679 12.0149 39.7946 12.0149Z" fill="#E16162"/>
</g>
<g filter="url(#filter3_d_634_1122)">
<path d="M36.091 7.07812L24.9824 9.54671" stroke="#E16162" stroke-width="3" stroke-miterlimit="10"/>
</g>
<g filter="url(#filter4_d_634_1122)">
<path d="M16.3728 13.25L7.70312 27.0982L21.2803 45.3416" stroke="#E16162" stroke-width="3" stroke-miterlimit="10" shape-rendering="crispEdges"/>
</g>
<g filter="url(#filter5_d_634_1122)">
<path d="M62.6286 70.0268C65.0145 70.0268 66.9486 68.0926 66.9486 65.7067C66.9486 63.3209 65.0145 61.3867 62.6286 61.3867C60.2427 61.3867 58.3086 63.3209 58.3086 65.7067C58.3086 68.0926 60.2427 70.0268 62.6286 70.0268Z" fill="#E16162"/>
</g>
<g filter="url(#filter6_d_634_1122)">
<path d="M53.3721 52.7461L63.2464 65.089" stroke="#E16162" stroke-width="3" stroke-miterlimit="10"/>
</g>
<g filter="url(#filter7_d_634_1122)">
<path d="M57.0742 9.54688L57.916 35.3652L70.6514 50.2785" stroke="#E16162" stroke-width="3" stroke-miterlimit="10" shape-rendering="crispEdges"/>
</g>
<g filter="url(#filter8_d_634_1122)">
<path d="M53.3717 57.683C56.0985 57.683 58.3089 55.7489 58.3089 53.363C58.3089 50.9771 56.0985 49.043 53.3717 49.043C50.645 49.043 48.4346 50.9771 48.4346 53.363C48.4346 55.7489 50.645 57.683 53.3717 57.683Z" fill="#E16162"/>
</g>
<g filter="url(#filter9_d_634_1122)">
<path d="M33.623 30.5293L44.7317 36.3879L37.5912 49.0437" stroke="#E16162" stroke-width="3" stroke-miterlimit="10" shape-rendering="crispEdges"/>
</g>
<g filter="url(#filter10_d_634_1122)">
<path d="M44.1149 40.4037C46.5008 40.4037 48.435 38.4696 48.435 36.0837C48.435 33.6978 46.5008 31.7637 44.1149 31.7637C41.7291 31.7637 39.7949 33.6978 39.7949 36.0837C39.7949 38.4696 41.7291 40.4037 44.1149 40.4037Z" fill="#E16162"/>
</g>
<g filter="url(#filter11_d_634_1122)">
<path d="M70.6519 57.6827C74.0603 57.6827 76.8234 54.6433 76.8234 50.8941C76.8234 47.1448 74.0603 44.1055 70.6519 44.1055C67.2435 44.1055 64.4805 47.1448 64.4805 50.8941C64.4805 54.6433 67.2435 57.6827 70.6519 57.6827Z" fill="#E16162"/>
</g>
<g filter="url(#filter12_d_634_1122)">
<path d="M71.8857 18.1875L78.0572 31.7647" stroke="#E16162" stroke-width="3" stroke-miterlimit="10"/>
</g>
<g filter="url(#filter13_d_634_1122)">
<path d="M71.8865 21.8882C73.9315 21.8882 75.5893 20.2303 75.5893 18.1853C75.5893 16.1403 73.9315 14.4824 71.8865 14.4824C69.8414 14.4824 68.1836 16.1403 68.1836 18.1853C68.1836 20.2303 69.8414 21.8882 71.8865 21.8882Z" fill="#E16162"/>
</g>
<g filter="url(#filter14_d_634_1122)">
<path d="M57.0748 15.7179C60.4832 15.7179 63.2462 12.9549 63.2462 9.54646C63.2462 6.13806 60.4832 3.375 57.0748 3.375C53.6664 3.375 50.9033 6.13806 50.9033 9.54646C50.9033 12.9549 53.6664 15.7179 57.0748 15.7179Z" fill="#E16162"/>
</g>
<g filter="url(#filter15_d_634_1122)">
<path d="M37.943 53.9797C41.0105 53.9797 43.4973 51.493 43.4973 48.4254C43.4973 45.3578 41.0105 42.8711 37.943 42.8711C34.8754 42.8711 32.3887 45.3578 32.3887 48.4254C32.3887 51.493 34.8754 53.9797 37.943 53.9797Z" fill="#E16162"/>
</g>
<g filter="url(#filter16_d_634_1122)">
<path d="M31.1539 34.2315C34.5623 34.2315 37.3253 31.1921 37.3253 27.4429C37.3253 23.6937 34.5623 20.6543 31.1539 20.6543C27.7455 20.6543 24.9824 23.6937 24.9824 27.4429C24.9824 31.1921 27.7455 34.2315 31.1539 34.2315Z" fill="#E16162"/>
</g>
<g filter="url(#filter17_d_634_1122)">
<path d="M78.0574 36.7007C80.1024 36.7007 81.7602 35.0428 81.7602 32.9978C81.7602 30.9528 80.1024 29.2949 78.0574 29.2949C76.0123 29.2949 74.3545 30.9528 74.3545 32.9978C74.3545 35.0428 76.0123 36.7007 78.0574 36.7007Z" fill="#E16162"/>
</g>
<g filter="url(#filter18_d_634_1122)">
<path d="M18.5 50C22.6421 50 26 46.866 26 43C26 39.134 22.6421 36 18.5 36C14.3579 36 11 39.134 11 43C11 46.866 14.3579 50 18.5 50Z" fill="#E16162"/>
</g>
<g filter="url(#filter19_d_634_1122)">
<path d="M8.93716 34.2317C11.6639 34.2317 13.8743 31.7449 13.8743 28.6774C13.8743 25.6098 11.6639 23.123 8.93716 23.123C6.21044 23.123 4 25.6098 4 28.6774C4 31.7449 6.21044 34.2317 8.93716 34.2317Z" fill="#E16162"/>
</g>
<g filter="url(#filter20_d_634_1122)">
<path d="M57.692 40.4036C60.7596 40.4036 63.2463 38.1932 63.2463 35.4665C63.2463 32.7397 60.7596 30.5293 57.692 30.5293C54.6244 30.5293 52.1377 32.7397 52.1377 35.4665C52.1377 38.1932 54.6244 40.4036 57.692 40.4036Z" fill="#E16162"/>
</g>
<defs>
<filter id="filter0_d_634_1122" x="39.4971" y="18.1875" width="14.1719" height="14.1719" filterUnits="userSpaceOnUse" color-interpolation-filters="sRGB">
<feFlood flood-opacity="0" result="BackgroundImageFix"/>
<feColorMatrix in="SourceAlpha" type="matrix" values="0 0 0 0 0 0 0 0 0 0 0 0 0 0 0 0 0 0 127 0" result="hardAlpha"/>
<feOffset dy="4"/>
<feGaussianBlur stdDeviation="2"/>
<feComposite in2="hardAlpha" operator="out"/>
<feColorMatrix type="matrix" values="0 0 0 0 0 0 0 0 0 0 0 0 0 0 0 0 0 0 0.25 0"/>
<feBlend mode="normal" in2="BackgroundImageFix" result="effect1_dropShadow_634_1122"/>
<feBlend mode="normal" in="SourceGraphic" in2="effect1_dropShadow_634_1122" result="shape"/>
</filter>
<filter id="filter1_d_634_1122" x="9.875" y="5.84375" width="20.3428" height="20.3438" filterUnits="userSpaceOnUse" color-interpolation-filters="sRGB">
<feFlood flood-opacity="0" result="BackgroundImageFix"/>
<feColorMatrix in="SourceAlpha" type="matrix" values="0 0 0 0 0 0 0 0 0 0 0 0 0 0 0 0 0 0 127 0" result="hardAlpha"/>
<feOffset dy="4"/>
<feGaussianBlur stdDeviation="2"/>
<feComposite in2="hardAlpha" operator="out"/>
<feColorMatrix type="matrix" values="0 0 0 0 0 0 0 0 0 0 0 0 0 0 0 0 0 0 0.25 0"/>
<feBlend mode="normal" in2="BackgroundImageFix" result="effect1_dropShadow_634_1122"/>
<feBlend mode="normal" in="SourceGraphic" in2="effect1_dropShadow_634_1122" result="shape"/>
</filter>
<filter id="filter2_d_634_1122" x="30.8574" y="0.90625" width="17.874" height="19.1094" filterUnits="userSpaceOnUse" color-interpolation-filters="sRGB">
<feFlood flood-opacity="0" result="BackgroundImageFix"/>
<feColorMatrix in="SourceAlpha" type="matrix" values="0 0 0 0 0 0 0 0 0 0 0 0 0 0 0 0 0 0 127 0" result="hardAlpha"/>
<feOffset dy="4"/>
<feGaussianBlur stdDeviation="2"/>
<feComposite in2="hardAlpha" operator="out"/>
<feColorMatrix type="matrix" values="0 0 0 0 0 0 0 0 0 0 0 0 0 0 0 0 0 0 0.25 0"/>
<feBlend mode="normal" in2="BackgroundImageFix" result="effect1_dropShadow_634_1122"/>
<feBlend mode="normal" in="SourceGraphic" in2="effect1_dropShadow_634_1122" result="shape"/>
</filter>
<filter id="filter3_d_634_1122" x="20.6572" y="5.61328" width="19.7588" height="13.3984" filterUnits="userSpaceOnUse" color-interpolation-filters="sRGB">
<feFlood flood-opacity="0" result="BackgroundImageFix"/>
<feColorMatrix in="SourceAlpha" type="matrix" values="0 0 0 0 0 0 0 0 0 0 0 0 0 0 0 0 0 0 127 0" result="hardAlpha"/>
<feOffset dy="4"/>
<feGaussianBlur stdDeviation="2"/>
<feComposite in2="hardAlpha" operator="out"/>
<feColorMatrix type="matrix" values="0 0 0 0 0 0 0 0 0 0 0 0 0 0 0 0 0 0 0.25 0"/>
<feBlend mode="normal" in2="BackgroundImageFix" result="effect1_dropShadow_634_1122"/>
<feBlend mode="normal" in="SourceGraphic" in2="effect1_dropShadow_634_1122" result="shape"/>
</filter>
<filter id="filter4_d_634_1122" x="1.8877" y="12.4531" width="24.5957" height="41.7832" filterUnits="userSpaceOnUse" color-interpolation-filters="sRGB">
<feFlood flood-opacity="0" result="BackgroundImageFix"/>
<feColorMatrix in="SourceAlpha" type="matrix" values="0 0 0 0 0 0 0 0 0 0 0 0 0 0 0 0 0 0 127 0" result="hardAlpha"/>
<feOffset dy="4"/>
<feGaussianBlur stdDeviation="2"/>
<feComposite in2="hardAlpha" operator="out"/>
<feColorMatrix type="matrix" values="0 0 0 0 0 0 0 0 0 0 0 0 0 0 0 0 0 0 0.25 0"/>
<feBlend mode="normal" in2="BackgroundImageFix" result="effect1_dropShadow_634_1122"/>
<feBlend mode="normal" in="SourceGraphic" in2="effect1_dropShadow_634_1122" result="shape"/>
</filter>
<filter id="filter5_d_634_1122" x="54.3086" y="61.3867" width="16.6396" height="16.6406" filterUnits="userSpaceOnUse" color-interpolation-filters="sRGB">
<feFlood flood-opacity="0" result="BackgroundImageFix"/>
<feColorMatrix in="SourceAlpha" type="matrix" values="0 0 0 0 0 0 0 0 0 0 0 0 0 0 0 0 0 0 127 0" result="hardAlpha"/>
<feOffset dy="4"/>
<feGaussianBlur stdDeviation="2"/>
<feComposite in2="hardAlpha" operator="out"/>
<feColorMatrix type="matrix" values="0 0 0 0 0 0 0 0 0 0 0 0 0 0 0 0 0 0 0.25 0"/>
<feBlend mode="normal" in2="BackgroundImageFix" result="effect1_dropShadow_634_1122"/>
<feBlend mode="normal" in="SourceGraphic" in2="effect1_dropShadow_634_1122" result="shape"/>
</filter>
<filter id="filter6_d_634_1122" x="48.2012" y="51.8086" width="20.2168" height="22.2168" filterUnits="userSpaceOnUse" color-interpolation-filters="sRGB">
<feFlood flood-opacity="0" result="BackgroundImageFix"/>
<feColorMatrix in="SourceAlpha" type="matrix" values="0 0 0 0 0 0 0 0 0 0 0 0 0 0 0 0 0 0 127 0" result="hardAlpha"/>
<feOffset dy="4"/>
<feGaussianBlur stdDeviation="2"/>
<feComposite in2="hardAlpha" operator="out"/>
<feColorMatrix type="matrix" values="0 0 0 0 0 0 0 0 0 0 0 0 0 0 0 0 0 0 0.25 0"/>
<feBlend mode="normal" in2="BackgroundImageFix" result="effect1_dropShadow_634_1122"/>
<feBlend mode="normal" in="SourceGraphic" in2="effect1_dropShadow_634_1122" result="shape"/>
</filter>
<filter id="filter7_d_634_1122" x="51.5752" y="9.49805" width="24.2168" height="49.7539" filterUnits="userSpaceOnUse" color-interpolation-filters="sRGB">
<feFlood flood-opacity="0" result="BackgroundImageFix"/>
<feColorMatrix in="SourceAlpha" type="matrix" values="0 0 0 0 0 0 0 0 0 0 0 0 0 0 0 0 0 0 127 0" result="hardAlpha"/>
<feOffset dy="4"/>
<feGaussianBlur stdDeviation="2"/>
<feComposite in2="hardAlpha" operator="out"/>
<feColorMatrix type="matrix" values="0 0 0 0 0 0 0 0 0 0 0 0 0 0 0 0 0 0 0.25 0"/>
<feBlend mode="normal" in2="BackgroundImageFix" result="effect1_dropShadow_634_1122"/>
<feBlend mode="normal" in="SourceGraphic" in2="effect1_dropShadow_634_1122" result="shape"/>
</filter>
<filter id="filter8_d_634_1122" x="44.4346" y="49.043" width="17.874" height="16.6406" filterUnits="userSpaceOnUse" color-interpolation-filters="sRGB">
<feFlood flood-opacity="0" result="BackgroundImageFix"/>
<feColorMatrix in="SourceAlpha" type="matrix" values="0 0 0 0 0 0 0 0 0 0 0 0 0 0 0 0 0 0 127 0" result="hardAlpha"/>
<feOffset dy="4"/>
<feGaussianBlur stdDeviation="2"/>
<feComposite in2="hardAlpha" operator="out"/>
<feColorMatrix type="matrix" values="0 0 0 0 0 0 0 0 0 0 0 0 0 0 0 0 0 0 0.25 0"/>
<feBlend mode="normal" in2="BackgroundImageFix" result="effect1_dropShadow_634_1122"/>
<feBlend mode="normal" in="SourceGraphic" in2="effect1_dropShadow_634_1122" result="shape"/>
</filter>
<filter id="filter9_d_634_1122" x="28.9229" y="29.2031" width="21.873" height="28.5781" filterUnits="userSpaceOnUse" color-interpolation-filters="sRGB">
<feFlood flood-opacity="0" result="BackgroundImageFix"/>
<feColorMatrix in="SourceAlpha" type="matrix" values="0 0 0 0 0 0 0 0 0 0 0 0 0 0 0 0 0 0 127 0" result="hardAlpha"/>
<feOffset dy="4"/>
<feGaussianBlur stdDeviation="2"/>
<feComposite in2="hardAlpha" operator="out"/>
<feColorMatrix type="matrix" values="0 0 0 0 0 0 0 0 0 0 0 0 0 0 0 0 0 0 0.25 0"/>
<feBlend mode="normal" in2="BackgroundImageFix" result="effect1_dropShadow_634_1122"/>
<feBlend mode="normal" in="SourceGraphic" in2="effect1_dropShadow_634_1122" result="shape"/>
</filter>
<filter id="filter10_d_634_1122" x="35.7949" y="31.7637" width="16.6396" height="16.6406" filterUnits="userSpaceOnUse" color-interpolation-filters="sRGB">
<feFlood flood-opacity="0" result="BackgroundImageFix"/>
<feColorMatrix in="SourceAlpha" type="matrix" values="0 0 0 0 0 0 0 0 0 0 0 0 0 0 0 0 0 0 127 0" result="hardAlpha"/>
<feOffset dy="4"/>
<feGaussianBlur stdDeviation="2"/>
<feComposite in2="hardAlpha" operator="out"/>
<feColorMatrix type="matrix" values="0 0 0 0 0 0 0 0 0 0 0 0 0 0 0 0 0 0 0.25 0"/>
<feBlend mode="normal" in2="BackgroundImageFix" result="effect1_dropShadow_634_1122"/>
<feBlend mode="normal" in="SourceGraphic" in2="effect1_dropShadow_634_1122" result="shape"/>
</filter>
<filter id="filter11_d_634_1122" x="60.4805" y="44.1055" width="20.3428" height="21.5781" filterUnits="userSpaceOnUse" color-interpolation-filters="sRGB">
<feFlood flood-opacity="0" result="BackgroundImageFix"/>
<feColorMatrix in="SourceAlpha" type="matrix" values="0 0 0 0 0 0 0 0 0 0 0 0 0 0 0 0 0 0 127 0" result="hardAlpha"/>
<feOffset dy="4"/>
<feGaussianBlur stdDeviation="2"/>
<feComposite in2="hardAlpha" operator="out"/>
<feColorMatrix type="matrix" values="0 0 0 0 0 0 0 0 0 0 0 0 0 0 0 0 0 0 0.25 0"/>
<feBlend mode="normal" in2="BackgroundImageFix" result="effect1_dropShadow_634_1122"/>
<feBlend mode="normal" in="SourceGraphic" in2="effect1_dropShadow_634_1122" result="shape"/>
</filter>
<filter id="filter12_d_634_1122" x="66.5205" y="17.5664" width="16.9023" height="22.8184" filterUnits="userSpaceOnUse" color-interpolation-filters="sRGB">
<feFlood flood-opacity="0" result="BackgroundImageFix"/>
<feColorMatrix in="SourceAlpha" type="matrix" values="0 0 0 0 0 0 0 0 0 0 0 0 0 0 0 0 0 0 127 0" result="hardAlpha"/>
<feOffset dy="4"/>
<feGaussianBlur stdDeviation="2"/>
<feComposite in2="hardAlpha" operator="out"/>
<feColorMatrix type="matrix" values="0 0 0 0 0 0 0 0 0 0 0 0 0 0 0 0 0 0 0.25 0"/>
<feBlend mode="normal" in2="BackgroundImageFix" result="effect1_dropShadow_634_1122"/>
<feBlend mode="normal" in="SourceGraphic" in2="effect1_dropShadow_634_1122" result="shape"/>
</filter>
<filter id="filter13_d_634_1122" x="64.1836" y="14.4824" width="15.4053" height="15.4062" filterUnits="userSpaceOnUse" color-interpolation-filters="sRGB">
<feFlood flood-opacity="0" result="BackgroundImageFix"/>
<feColorMatrix in="SourceAlpha" type="matrix" values="0 0 0 0 0 0 0 0 0 0 0 0 0 0 0 0 0 0 127 0" result="hardAlpha"/>
<feOffset dy="4"/>
<feGaussianBlur stdDeviation="2"/>
<feComposite in2="hardAlpha" operator="out"/>
<feColorMatrix type="matrix" values="0 0 0 0 0 0 0 0 0 0 0 0 0 0 0 0 0 0 0.25 0"/>
<feBlend mode="normal" in2="BackgroundImageFix" result="effect1_dropShadow_634_1122"/>
<feBlend mode="normal" in="SourceGraphic" in2="effect1_dropShadow_634_1122" result="shape"/>
</filter>
<filter id="filter14_d_634_1122" x="46.9033" y="3.375" width="20.3428" height="20.3438" filterUnits="userSpaceOnUse" color-interpolation-filters="sRGB">
<feFlood flood-opacity="0" result="BackgroundImageFix"/>
<feColorMatrix in="SourceAlpha" type="matrix" values="0 0 0 0 0 0 0 0 0 0 0 0 0 0 0 0 0 0 127 0" result="hardAlpha"/>
<feOffset dy="4"/>
<feGaussianBlur stdDeviation="2"/>
<feComposite in2="hardAlpha" operator="out"/>
<feColorMatrix type="matrix" values="0 0 0 0 0 0 0 0 0 0 0 0 0 0 0 0 0 0 0.25 0"/>
<feBlend mode="normal" in2="BackgroundImageFix" result="effect1_dropShadow_634_1122"/>
<feBlend mode="normal" in="SourceGraphic" in2="effect1_dropShadow_634_1122" result="shape"/>
</filter>
<filter id="filter15_d_634_1122" x="28.3887" y="42.8711" width="19.1084" height="19.1094" filterUnits="userSpaceOnUse" color-interpolation-filters="sRGB">
<feFlood flood-opacity="0" result="BackgroundImageFix"/>
<feColorMatrix in="SourceAlpha" type="matrix" values="0 0 0 0 0 0 0 0 0 0 0 0 0 0 0 0 0 0 127 0" result="hardAlpha"/>
<feOffset dy="4"/>
<feGaussianBlur stdDeviation="2"/>
<feComposite in2="hardAlpha" operator="out"/>
<feColorMatrix type="matrix" values="0 0 0 0 0 0 0 0 0 0 0 0 0 0 0 0 0 0 0.25 0"/>
<feBlend mode="normal" in2="BackgroundImageFix" result="effect1_dropShadow_634_1122"/>
<feBlend mode="normal" in="SourceGraphic" in2="effect1_dropShadow_634_1122" result="shape"/>
</filter>
<filter id="filter16_d_634_1122" x="20.9824" y="20.6543" width="20.3428" height="21.5781" filterUnits="userSpaceOnUse" color-interpolation-filters="sRGB">
<feFlood flood-opacity="0" result="BackgroundImageFix"/>
<feColorMatrix in="SourceAlpha" type="matrix" values="0 0 0 0 0 0 0 0 0 0 0 0 0 0 0 0 0 0 127 0" result="hardAlpha"/>
<feOffset dy="4"/>
<feGaussianBlur stdDeviation="2"/>
<feComposite in2="hardAlpha" operator="out"/>
<feColorMatrix type="matrix" values="0 0 0 0 0 0 0 0 0 0 0 0 0 0 0 0 0 0 0.25 0"/>
<feBlend mode="normal" in2="BackgroundImageFix" result="effect1_dropShadow_634_1122"/>
<feBlend mode="normal" in="SourceGraphic" in2="effect1_dropShadow_634_1122" result="shape"/>
</filter>
<filter id="filter17_d_634_1122" x="70.3545" y="29.2949" width="15.4053" height="15.4062" filterUnits="userSpaceOnUse" color-interpolation-filters="sRGB">
<feFlood flood-opacity="0" result="BackgroundImageFix"/>
<feColorMatrix in="SourceAlpha" type="matrix" values="0 0 0 0 0 0 0 0 0 0 0 0 0 0 0 0 0 0 127 0" result="hardAlpha"/>
<feOffset dy="4"/>
<feGaussianBlur stdDeviation="2"/>
<feComposite in2="hardAlpha" operator="out"/>
<feColorMatrix type="matrix" values="0 0 0 0 0 0 0 0 0 0 0 0 0 0 0 0 0 0 0.25 0"/>
<feBlend mode="normal" in2="BackgroundImageFix" result="effect1_dropShadow_634_1122"/>
<feBlend mode="normal" in="SourceGraphic" in2="effect1_dropShadow_634_1122" result="shape"/>
</filter>
<filter id="filter18_d_634_1122" x="7" y="36" width="23" height="22" filterUnits="userSpaceOnUse" color-interpolation-filters="sRGB">
<feFlood flood-opacity="0" result="BackgroundImageFix"/>
<feColorMatrix in="SourceAlpha" type="matrix" values="0 0 0 0 0 0 0 0 0 0 0 0 0 0 0 0 0 0 127 0" result="hardAlpha"/>
<feOffset dy="4"/>
<feGaussianBlur stdDeviation="2"/>
<feComposite in2="hardAlpha" operator="out"/>
<feColorMatrix type="matrix" values="0 0 0 0 0 0 0 0 0 0 0 0 0 0 0 0 0 0 0.25 0"/>
<feBlend mode="normal" in2="BackgroundImageFix" result="effect1_dropShadow_634_1122"/>
<feBlend mode="normal" in="SourceGraphic" in2="effect1_dropShadow_634_1122" result="shape"/>
</filter>
<filter id="filter19_d_634_1122" x="0" y="23.123" width="17.874" height="19.1094" filterUnits="userSpaceOnUse" color-interpolation-filters="sRGB">
<feFlood flood-opacity="0" result="BackgroundImageFix"/>
<feColorMatrix in="SourceAlpha" type="matrix" values="0 0 0 0 0 0 0 0 0 0 0 0 0 0 0 0 0 0 127 0" result="hardAlpha"/>
<feOffset dy="4"/>
<feGaussianBlur stdDeviation="2"/>
<feComposite in2="hardAlpha" operator="out"/>
<feColorMatrix type="matrix" values="0 0 0 0 0 0 0 0 0 0 0 0 0 0 0 0 0 0 0.25 0"/>
<feBlend mode="normal" in2="BackgroundImageFix" result="effect1_dropShadow_634_1122"/>
<feBlend mode="normal" in="SourceGraphic" in2="effect1_dropShadow_634_1122" result="shape"/>
</filter>
<filter id="filter20_d_634_1122" x="48.1377" y="30.5293" width="19.1084" height="17.875" filterUnits="userSpaceOnUse" color-interpolation-filters="sRGB">
<feFlood flood-opacity="0" result="BackgroundImageFix"/>
<feColorMatrix in="SourceAlpha" type="matrix" values="0 0 0 0 0 0 0 0 0 0 0 0 0 0 0 0 0 0 127 0" result="hardAlpha"/>
<feOffset dy="4"/>
<feGaussianBlur stdDeviation="2"/>
<feComposite in2="hardAlpha" operator="out"/>
<feColorMatrix type="matrix" values="0 0 0 0 0 0 0 0 0 0 0 0 0 0 0 0 0 0 0.25 0"/>
<feBlend mode="normal" in2="BackgroundImageFix" result="effect1_dropShadow_634_1122"/>
<feBlend mode="normal" in="SourceGraphic" in2="effect1_dropShadow_634_1122" result="shape"/>
</filter>
</defs>
</svg>
